<?xml version="1.0" standalone="no"?><!DOCTYPE svg PUBLIC "-//W3C//DTD SVG 1.1//EN" "http://www.w3.org/Graphics/SVG/1.1/DTD/svg11.dtd"><svg t="1595913076452" class="icon" viewBox="0 0 1024 1024" version="1.1" xmlns="http://www.w3.org/2000/svg" p-id="8335" xmlns:xlink="http://www.w3.org/1999/xlink" width="200" height="200"><defs><style type="text/css"></style></defs><path d="M512 884.48l-151.04-158.72 46.08-44.16L512 791.68 658.56 640H832c17.92 0 32-14.08 32-32V288.64h64V608c0 53.12-42.88 96-96 96h-146.56L512 884.48zM256 704H192c-53.12 0-96-42.88-96-96V192c0-53.12 42.88-96 96-96h543.36v64H192c-17.28 0-32 14.08-32 32v416c0 17.92 14.72 32 32 32h64v64z" fill="#C36DB4" p-id="8336"></path><path d="M320 288h384v64H320zM320 448h384v64H320z" fill="#C36DB4" p-id="8337"></path><path d="M896 128m-64 0a64 64 0 1 0 128 0 64 64 0 1 0-128 0Z" fill="#C36DB4" p-id="8338"></path></svg>