<?xml version="1.0" standalone="no"?><!DOCTYPE svg PUBLIC "-//W3C//DTD SVG 1.1//EN" "http://www.w3.org/Graphics/SVG/1.1/DTD/svg11.dtd"><svg t="1596006066510" class="icon" viewBox="0 0 1024 1024" version="1.1" xmlns="http://www.w3.org/2000/svg" p-id="3541" xmlns:xlink="http://www.w3.org/1999/xlink" width="200" height="200"><defs><style type="text/css"></style></defs><path d="M309.804273 158.339776h565.856358c11.250458 0 20.209156 8.958698 20.209155 20.209156v40.418311c0 11.250458-8.958698 20.209156-20.209155 20.209156H309.804273c-11.250458 0-20.209156-8.958698-20.209156-20.209156V178.548932c0-11.250458 9.16704-20.209156 20.209156-20.209156z" fill="#039BE5" p-id="3542"></path><path d="M148.131027 481.686267h727.529604c11.250458 0 20.209156 8.958698 20.209155 20.209155v40.418311c0 11.250458-8.958698 20.209156-20.209155 20.209156H148.131027c-11.250458 0-20.209156-8.958698-20.209155-20.209156v-40.418311c0-11.042116 9.16704-20.209156 20.209155-20.209155z" fill="#29B6F6" p-id="3543"></path><path d="M309.804273 784.823601h565.856358c11.250458 0 20.209156 8.958698 20.209155 20.209156v40.418311c0 11.250458-8.958698 20.209156-20.209155 20.209156H309.804273c-11.250458 0-20.209156-8.958698-20.209156-20.209156v-40.418311c0-11.042116 9.16704-20.209156 20.209156-20.209156z" fill="#039BE5" p-id="3544"></path></svg>